<svg width="64" height="64" viewBox="0 0 64 64" fill="none" xmlns="http://www.w3.org/2000/svg">
<path d="M31.9958 0C14.3278 0 0 14.6896 0 32.8111C0 47.3049 9.1683 59.6004 21.8881 63.9427C23.4879 64.2459 24.0721 63.2329 24.0721 62.3627C24.0721 61.5823 24.0446 59.5192 24.0279 56.7819C15.1281 58.7635 13.2485 52.3824 13.2485 52.3824C11.7963 48.5911 9.69591 47.5826 9.69591 47.5826C6.78778 45.5483 9.91223 45.5895 9.91223 45.5895C13.124 45.8219 14.812 48.9715 14.812 48.9715C17.6679 53.9838 22.3044 52.5373 24.1282 51.6962C24.416 49.5761 25.2437 48.1304 26.1605 47.3093C19.056 46.4797 11.5837 43.6648 11.5837 31.0955C11.5837 27.5127 12.8323 24.5842 14.8797 22.2881C14.5477 21.4588 13.4519 18.1209 15.192 13.6069C15.192 13.6069 17.8803 12.7251 23.9917 16.969C26.544 16.2417 29.28 15.8787 32.0039 15.8664C34.7197 15.8832 37.4591 16.2417 40.0156 16.9735C46.1241 12.729 48.808 13.6114 48.808 13.6114C50.5517 18.1295 49.456 21.4632 49.1281 22.2919C51.1796 24.5881 52.416 27.5167 52.416 31.0999C52.416 43.7019 44.9361 46.4755 37.8083 47.2881C38.9562 48.3019 39.9798 50.3026 39.9798 53.3627C39.9798 57.7507 39.94 61.2878 39.94 62.3627C39.94 63.2406 40.5157 64.2618 42.1397 63.939C54.8399 59.592 64 47.3009 64 32.8111C64.0001 14.6895 49.6723 0 31.9958 0Z" fill="#667080"/>
</svg>
